PathFileType	4	(X/Y/Z)	../Python\walking\Walking11\task.trc
DataRate	CameraRate	NumFrames	NumMarkers	Units	OrigDataRate	OrigDataStartFrame	OrigNumFrames
200.000000	200.000000	6	30	mm	200.000000	384	512
Frame#	Time	CLAV			STRN			RASI			LASI			RTH1			RTH2			RTH3			RTB1			RTB2			RTB3			RD5M			RTOE			LTH1			LTH2			LTH3			LTB1			LTB2			LTB3			LTOE			LD5M			PE03			PE02			RPSI			LPSI			T10			LHEE			C7			RHEE			RBAK			PE01			
		X1	Y1	Z1	X2	Y2	Z2	X3	Y3	Z3	X4	Y4	Z4	X5	Y5	Z5	X6	Y6	Z6	X7	Y7	Z7	X8	Y8	Z8	X9	Y9	Z9	X10	Y10	Z10	X11	Y11	Z11	X12	Y12	Z12	X13	Y13	Z13	X14	Y14	Z14	X15	Y15	Z15	X16	Y16	Z16	X17	Y17	Z17	X18	Y18	Z18	X19	Y19	Z19	X20	Y20	Z20	X21	Y21	Z21	X22	Y22	Z22	X23	Y23	Z23	X24	Y24	Z24	X25	Y25	Z25	X26	Y26	Z26	X27	Y27	Z27	X28	Y28	Z28	X29	Y29	Z29	X30	Y30	Z30	

385	1.92	2102.137451171876	1398.556030273438	196.5293884277345	2154.224365234376	1204.859985351563	208.4643707275392	2137.926513671876	1001.787414550782	347.9199218750001	2116.454833984376	993.2377319335942	69.75696563720706	2156.431884765626	743.016052246094	403.1147460937502	2114.059326171876	702.6970825195315	380.2295837402345	2150.739746093751	669.0156860351565	374.8137207031251	2307.546142578126	370.7760314941407	328.6781005859376	2287.848388671876	313.2229003906251	325.7744750976564	2333.889160156251	297.4466247558595	318.2514648437501	2525.988281250001	60.55574417114261	304.1464843750001	2560.429687500001	106.668441772461	273.938690185547	1945.408203125001	715.7084960937502	55.39253616333011	1908.354492187501	689.138122558594	76.478630065918	1942.751220703126	638.2623291015627	71.55110931396487	1793.123413085938	381.8182373046876	109.8032684326172	1752.564819335938	357.5644836425782	126.1285705566407	1783.956298828126	304.2319641113282	122.0575714111329	1822.854248046876	30.88200569152833	197.3196563720704	1771.284179687501	20.94433021545411	152.402572631836	1953.260986328126	1027.780517578125	213.1379394531251	1962.229980468751	1027.932373046875	263.6714172363282	1969.896606445313	1039.45654296875	285.5499267578126	1955.208984375001	1041.62451171875	187.4108581542969	1927.435302734376	1235.625122070313	195.5083007812501	1622.501464843751	97.76850891113287	213.8148498535157	1991.694580078126	1494.381958007813	180.5562438964844	2377.480224609376	16.49913406372071	221.1998291015626	1961.085083007813	1411.657104492188	349.9370727539064	1970.646850585938	1087.528564453125	235.2916107177736	
386	1.925	2109.383789062501	1398.234497070313	196.8368225097657	2162.195800781251	1204.700317382813	208.6447601318361	2146.382568359376	1001.453979492188	348.1069641113282	2124.977050781251	992.2927246093755	69.88124847412112	2164.608642578126	743.0153808593752	403.1656494140627	2122.254882812501	702.7451782226565	380.2892150878907	2159.071289062501	669.1275634765627	374.6932067871095	2313.124023437501	369.2471618652345	328.2991943359376	2292.875488281251	311.8554687500001	324.9668579101564	2338.843994140626	295.7106323242189	317.6453552246095	2528.531250000001	56.76819992065433	303.5245361328126	2563.669433593751	102.4036407470704	273.7537841796876	1952.691162109376	715.5280761718752	55.61225128173831	1915.580200195313	689.0922851562502	76.77874755859378	1949.703979492188	638.0523681640627	71.53534698486331	1798.180664062501	382.8682250976564	109.3560943603516	1757.334350585938	359.0488891601564	125.5914611816407	1788.117553710938	305.3702392578126	121.5198135375977	1823.018554687501	30.88700103759767	197.2251129150392	1771.509887695313	20.9361686706543	152.300765991211	1961.726318359376	1027.328369140625	213.2568206787111	1970.584960937501	1027.589599609375	263.7951660156251	1978.254272460938	1039.1552734375	285.6948547363282	1963.710205078126	1041.059326171875	187.5041961669922	1935.349975585938	1234.671142578125	195.8228454589845	1624.082397460938	101.1090240478516	212.6771850585939	1998.638549804688	1493.760009765625	180.9403533935547	2379.808593750001	15.19927883148194	220.0210723876954	1968.380004882813	1410.821166992188	350.3138122558595	1979.040161132813	1087.119140625	235.2905883789064	
387	1.93	2116.659667968751	1397.973754882813	197.1574554443361	2170.222167968751	1204.608764648438	208.8332672119142	2154.880859375001	1001.205383300782	348.2937316894532	2133.599365234376	991.3502807617192	70.03220367431643	2172.911865234376	743.1501464843752	403.163757324219	2130.561523437501	702.8989868164065	380.4057617187501	2167.505615234376	669.3359985351565	374.5950012207032	2318.645996093751	367.7523803710939	327.9260864257814	2297.807617187501	310.5278625488282	324.210662841797	2343.684814453126	293.9780273437501	317.0598449707032	2530.689208984376	52.70430755615237	302.9453125000001	2566.640869140626	97.66954803466803	273.5325012207032	1960.148925781251	715.3005981445315	55.82115554809573	1922.979980468751	688.9903564453127	77.06211853027347	1956.844360351563	637.795104980469	71.52371215820315	1803.419921875001	383.9200744628907	108.8812789916993	1762.282714843751	360.5467224121095	125.0179901123047	1792.443969726563	306.5227661132814	120.9442138671876	1823.187011718751	30.89553642272951	197.1242828369142	1771.743408203126	20.91465187072755	152.1921997070313	1970.257202148438	1026.928100585938	213.3335418701173	1978.988891601563	1027.311279296875	263.8773803710939	1986.655029296876	1038.922607421875	285.7994384765626	1972.286376953126	1040.53955078125	187.5527648925782	1943.328125000001	1233.75341796875	196.1343231201173	1625.816650390626	104.5574188232422	211.4968261718751	2005.598266601563	1493.186401367188	181.3402252197266	2381.637207031251	14.02015495300294	219.0183868408204	1975.705200195313	1410.017944335938	350.7063598632814	1987.493774414063	1086.76611328125	235.2364959716798	
388	1.935	2123.962646484376	1397.774658203125	197.4900512695314	2178.297363281251	1204.585205078125	209.0285034179689	2163.415039062501	1001.046569824219	348.4808044433595	2142.312988281251	990.4124145507817	70.21241760253909	2181.324218750001	743.4147949218752	403.1100158691409	2138.953857421876	703.158874511719	380.5835876464845	2176.003906250001	669.6342773437502	374.5226135253907	2324.121337890626	366.3136291503907	327.5621032714845	2302.673339843751	309.2578430175782	323.5189514160157	2348.441894531251	292.280242919922	316.499237060547	2532.549316406251	48.45016860961917	302.4082336425782	2569.429443359376	92.54966735839847	273.2581481933595	1967.776611328126	715.0279541015627	56.0184020996094	1930.550415039063	688.8344726562502	77.33137512207034	1964.168579101563	637.4927368164065	71.51395416259768	1808.847778320313	384.9714965820315	108.3812408447266	1767.418701171876	362.0545043945314	124.4127578735352	1796.944213867188	307.6870117187501	120.3309402465821	1823.354614257813	30.90496635437013	197.0188293457032	1771.983276367188	20.88173866271973	152.0791015625001	1978.845825195313	1026.579711914063	213.3675842285157	1987.434082031251	1027.097900390625	263.9173889160157	1995.090698242188	1038.759643554688	285.8626098632814	1980.928833007813	1040.065185546875	187.5559082031251	1951.364257812501	1232.876098632813	196.4400024414064	1627.723876953126	108.1119079589844	210.2811584472657	2012.573486328126	1492.663208007813	181.7540740966797	2383.068847656251	13.01606178283692	218.1864013671876	1983.058105468751	1409.250244140625	351.112518310547	1995.999633789063	1086.470092773438	235.1282806396486	
389	1.94	2131.291015625001	1397.637573242188	197.8332061767579	2186.415283203126	1204.629760742188	209.2288513183595	2171.977050781251	1000.982666015625	348.6687316894532	2151.108886718751	989.4816284179692	70.42451477050784	2189.827148437501	743.8040771484377	403.0064697265627	2147.406250000001	703.5259399414065	380.8264770507814	2184.527832031251	670.017761230469	374.4790954589845	2329.559082031251	364.9533081054689	327.2100219726564	2307.499267578126	308.0643920898439	322.9041748046876	2353.143798828126	290.6489868164064	315.9671936035157	2534.193115234376	44.09795379638673	301.913543701172	2572.110107421876	87.13735961914065	272.9141845703126	1975.569091796876	714.7126464843752	56.20420837402347	1938.287963867188	688.6275634765627	77.59013366699222	1971.672851562501	637.1483154296877	71.50407409667972	1814.472290039063	386.0200195312502	107.8586730957032	1772.751708984376	363.568328857422	123.7811889648438	1801.628540039063	308.8599853515626	119.679916381836	1823.515625000001	30.9120330810547	196.9110260009767	1772.228881835938	20.84065246582032	151.9635620117188	1987.482910156251	1026.282958984375	213.3586273193361	1995.912597656251	1026.950073242188	263.9146728515626	2003.552978515626	1038.667236328125	285.8834533691407	1989.627563476563	1039.63623046875	187.5131072998047	1959.452392578126	1232.043823242188	196.7371673583986	1629.826171875001	111.7702636718751	209.0365447998048	2019.563598632813	1492.192138671875	182.1799621582032	2384.202636718751	12.23213958740235	217.5169372558595	1990.436157226563	1408.52099609375	351.5299682617189	2004.548950195313	1086.23095703125	234.9651184082032	
390	1.945	2138.642089843751	1397.56298828125	198.1853179931642	2194.568847656251	1204.741821289063	209.4324798583986	2180.557861328126	1001.018798828125	348.8579711914064	2159.976318359376	988.5606079101567	70.6711120605469	2198.400878906251	744.3128662109377	402.8562622070315	2155.892822265626	704.0019531250002	381.1374511718751	2193.040039062501	670.4835205078127	374.4670410156251	2334.966796875001	363.6931457519532	326.8718566894532	2312.310791015626	306.9672241210939	322.3777465820314	2357.815185546876	289.1149902343751	315.466278076172	2535.690429687501	39.74282836914064	301.4621582031251	2574.742187500001	81.53366851806643	272.4844360351564	1983.521118164063	714.3577270507815	56.3798522949219	1946.189697265626	688.372741699219	77.84273529052737	1979.354003906251	636.765075683594	71.49243164062503	1820.302368164063	387.0627746582034	107.3164367675782	1778.292968750001	365.0838012695314	123.1294174194337	1806.508056640626	310.0381164550782	118.9908142089844	1823.663574218751	30.91315650939943	196.8037567138673	1772.480346679688	20.79605865478516	151.8473815917969	1996.158813476563	1026.03759765625	213.3064880371095	2004.415527343751	1026.868041992188	263.8688964843751	2012.032714843751	1038.646362304688	285.861053466797	1998.371826171876	1039.252807617188	187.4240417480469	1967.586059570313	1231.2607421875	197.0232238769532	1632.147460937501	115.5298461914063	207.7676239013673	2026.568115234376	1491.774780273438	182.6158905029297	2385.129150390626	11.70038414001465	216.9998626708986	1997.836791992188	1407.832763671875	351.9563598632814	2013.132202148438	1086.049072265625	234.7464141845704	
